<svg xmlns:xlink="http://www.w3.org/1999/xlink" width="36" alt="دریافت از طریق بازار" height="24" viewBox="0 0 36 24" fill="none" xmlns="http://www.w3.org/2000/svg">
                                            <path d="M14.7901 15.1686C14.5127 15.1686 14.238 15.1139 13.9817 15.0078C13.7254 14.9016 13.4925 14.746 13.2963 14.5499C13.1002 14.3537 12.9446 14.1208 12.8384 13.8645C12.7322 13.6082 12.6776 13.3335 12.6776 13.0561V2.49236C12.6776 2.21494 12.7322 1.94025 12.8384 1.68395C12.9446 1.42765 13.1002 1.19477 13.2963 0.998613C13.4925 0.802451 13.7254 0.646847 13.9817 0.540685C14.238 0.434523 14.5127 0.379883 14.7901 0.379883C15.0675 0.379883 15.3422 0.434523 15.5985 0.540685C15.8548 0.646847 16.0877 0.802451 16.2838 0.998613C16.48 1.19477 16.6356 1.42765 16.7417 1.68395C16.8479 1.94025 16.9025 2.21494 16.9025 2.49236V13.0561C16.9025 14.2216 15.957 15.1686 14.7901 15.1686ZM7.39572 17.2811H2.11247C1.55221 17.2811 1.0149 17.0585 0.618729 16.6623C0.222563 16.2662 0 15.7288 0 15.1686C0 14.6083 0.222563 14.071 0.618729 13.6748C1.0149 13.2787 1.55221 13.0561 2.11247 13.0561H6.3388V6.71731C6.3388 6.15704 6.56136 5.61973 6.95753 5.22356C7.3537 4.8274 7.89101 4.60483 8.45128 4.60483C9.01154 4.60483 9.54885 4.8274 9.94502 5.22356C10.3412 5.61973 10.5638 6.15704 10.5638 6.71731V14.113C10.563 14.953 10.229 15.7584 9.63505 16.3524C9.04109 16.9463 8.23571 17.2803 7.39572 17.2811Z" fill="#FFFFFF"></path>
                                            <path d="M20.0625 21.5074H14.7902C14.2299 21.5074 13.6926 21.2848 13.2965 20.8886C12.9003 20.4925 12.6777 19.9552 12.6777 19.3949C12.6777 18.8346 12.9003 18.2973 13.2965 17.9011C13.6926 17.505 14.2299 17.2824 14.7902 17.2824H19.0165V10.9436C19.0165 10.6662 19.0712 10.3915 19.1773 10.1352C19.2835 9.87891 19.4391 9.64603 19.6353 9.44987C19.8314 9.25371 20.0643 9.0981 20.3206 8.99194C20.5769 8.88578 20.8516 8.83114 21.129 8.83114C21.4064 8.83114 21.6811 8.88578 21.9374 8.99194C22.1937 9.0981 22.4266 9.25371 22.6228 9.44987C22.8189 9.64603 22.9745 9.87891 23.0807 10.1352C23.1868 10.3915 23.2415 10.6662 23.2415 10.9436V18.3283C23.2408 19.1713 22.9056 19.9794 22.3096 20.5754C21.7135 21.1715 20.9054 21.5066 20.0625 21.5074ZM33.8066 17.281H28.5522C27.7046 17.2803 26.8919 16.9433 26.2925 16.3439C25.6931 15.7445 25.3561 14.9318 25.3553 14.0842V4.60344C25.3553 4.04318 25.5779 3.50586 25.9741 3.1097C26.3702 2.71353 26.9075 2.49097 27.4678 2.49097C28.0281 2.49097 28.5654 2.71353 28.9616 3.1097C29.3577 3.50586 29.5803 4.04318 29.5803 4.60344V13.0547H33.8066C34.3671 13.0547 34.9045 13.2774 35.3008 13.6736C35.6971 14.0699 35.9198 14.6074 35.9198 15.1679C35.9198 15.7283 35.6971 16.2658 35.3008 16.6621C34.9045 17.0584 34.3671 17.281 33.8066 17.281Z" fill="#FFFFFF"></path>
                                            <path d="M21.1291 6.71592C22.2958 6.71592 23.2416 5.77013 23.2416 4.60344C23.2416 3.43675 22.2958 2.49097 21.1291 2.49097C19.9624 2.49097 19.0166 3.43675 19.0166 4.60344C19.0166 5.77013 19.9624 6.71592 21.1291 6.71592Z" fill="#FFFFFF"></path>
                                            <path d="M27.4679 23.62C28.6346 23.62 29.5804 22.6742 29.5804 21.5075C29.5804 20.3408 28.6346 19.395 27.4679 19.395C26.3013 19.395 25.3555 20.3408 25.3555 21.5075C25.3555 22.6742 26.3013 23.62 27.4679 23.62Z" fill="#FFFFFF"></path>
                                        </svg>