<svg xmlns:xlink="http://www.w3.org/1999/xlink" width="22" height="22" viewBox="0 0 22 22" fill="none" xmlns="http://www.w3.org/2000/svg" class="">
                                        <path d="M15.375 9.25H17.125C18.875 9.25 19.75 8.375 19.75 6.625V4.875C19.75 3.125 18.875 2.25 17.125 2.25H15.375C13.625 2.25 12.75 3.125 12.75 4.875V6.625C12.75 8.375 13.625 9.25 15.375 9.25Z" stroke="#FF5F55" stroke-width="1.5px" stroke-miterlimit="10" stroke-linecap="round" stroke-linejoin="round" fill="none" class=""></path>
                                        <path d="M4.875 19.75H6.625C8.375 19.75 9.25 18.875 9.25 17.125V15.375C9.25 13.625 8.375 12.75 6.625 12.75H4.875C3.125 12.75 2.25 13.625 2.25 15.375V17.125C2.25 18.875 3.125 19.75 4.875 19.75Z" stroke="#2A2D53" stroke-width="1.5px" stroke-miterlimit="10" stroke-linecap="round" stroke-linejoin="round" fill="none" class=""></path>
                                        <path d="M5.75 9.25C7.683 9.25 9.25 7.683 9.25 5.75C9.25 3.817 7.683 2.25 5.75 2.25C3.817 2.25 2.25 3.817 2.25 5.75C2.25 7.683 3.817 9.25 5.75 9.25Z" stroke="#2A2D53" stroke-width="1.5px" stroke-miterlimit="10" stroke-linecap="round" stroke-linejoin="round" fill="none" class=""></path>
                                        <path d="M16.25 19.75C18.183 19.75 19.75 18.183 19.75 16.25C19.75 14.317 18.183 12.75 16.25 12.75C14.317 12.75 12.75 14.317 12.75 16.25C12.75 18.183 14.317 19.75 16.25 19.75Z" stroke="#2A2D53" stroke-width="1.5px" stroke-miterlimit="10" stroke-linecap="round" stroke-linejoin="round" fill="none" class=""></path>
                                    </svg>