<svg xmlns:xlink="http://www.w3.org/1999/xlink" alt="دریافت ایمالز از مایکت" width="24" height="25" viewBox="0 0 24 25" fill="none" xmlns="http://www.w3.org/2000/svg">
                                            <path d="M12 24.5C18.6274 24.5 24 19.1274 24 12.5C24 5.87258 18.6274 0.5 12 0.5C5.37258 0.5 0 5.87258 0 12.5C0 19.1274 5.37258 24.5 12 24.5Z" fill="#FFFFFF"></path>
                                            <path d="M19.3608 11.0801C19.2604 8.80707 17.3925 7.00366 15.0979 7.00366C13.8251 7.00366 12.6778 7.56655 11.8962 8.44854C11.1146 7.56655 9.96734 7.00366 8.69456 7.00366C6.44658 7.00366 4.60374 8.73536 4.43881 10.9547C4.43164 11.0013 4.43164 11.0622 4.43164 11.1196V15.9346C4.43164 16.5262 4.90849 17.0031 5.50006 17.0031H5.52516C6.11673 17.0031 6.59358 16.5262 6.59358 15.9346V11.2738H6.60075C6.60075 10.1014 7.55444 9.15126 8.72325 9.15126C9.89564 9.15126 10.8457 10.1049 10.8457 11.2738H10.8529V15.2068C10.8529 15.7984 11.3298 16.2752 11.9213 16.2752H11.9464C12.538 16.2752 13.0148 15.7984 13.0148 15.2068V11.263C13.022 10.0906 13.9685 9.15484 15.1373 9.15484C16.3062 9.15484 17.2706 10.1121 17.2706 11.2809H17.2778V15.949C17.2778 16.5334 17.7546 17.0031 18.3318 17.0031H18.3569C18.9413 17.0031 19.411 16.5262 19.411 15.949V11.1877C19.3608 11.1339 19.3608 11.1088 19.3608 11.0801Z" fill="#0091EA"></path>
                                            <path d="M15.3273 17.4191C15.2806 17.3403 15.1229 17.498 15.1229 17.498C14.5313 18.1398 13.3051 18.5521 12.0324 18.5521C10.7596 18.5521 9.54058 18.1398 8.94183 17.498C8.94183 17.498 8.78408 17.3331 8.73747 17.4191C8.67652 17.5124 8.76974 17.663 8.76974 17.663C9.52624 18.7565 10.6807 19.2477 12.0324 19.2477C13.384 19.2477 14.5385 18.7565 15.295 17.663C15.3022 17.6594 15.3882 17.5124 15.3273 17.4191Z" fill="#0091EA"></path>
                                        </svg>