<svg width="330" height="122" viewBox="0 0 330 122" fill="none" xmlns="http://www.w3.org/2000/svg">
<path d="M215 94.4388C215 93.9002 215 93.6308 215.014 93.4034C215.244 89.5972 218.279 86.5618 222.086 86.3316C222.313 86.3179 222.582 86.3179 223.121 86.3179H314.288C321.397 86.3179 324.952 86.3179 327.161 88.5265C329.37 90.7352 329.37 94.29 329.37 101.4V106.427C329.37 113.536 329.37 117.091 327.161 119.3C324.952 121.508 321.397 121.508 314.288 121.508H242.07C240.274 121.508 239.377 121.508 238.618 121.463C225.931 120.695 215.813 110.577 215.046 97.89C215 97.1318 215 96.2342 215 94.4388Z" fill="url(#paint0_linear_2125_8)"/>
<path d="M216.257 102.656H329.369V106.427C329.369 113.536 329.369 117.091 327.161 119.3C324.952 121.509 321.397 121.509 314.288 121.509H237.789C226.902 121.509 217.696 113.449 216.257 102.656Z" fill="#F47625"/>
<path d="M217.514 27.0698C217.514 27.6084 217.514 27.8777 217.527 28.1052C217.758 31.9114 220.793 34.9467 224.599 35.177C224.827 35.1907 225.096 35.1907 225.635 35.1907H304.233C311.343 35.1907 314.898 35.1907 317.106 32.9821C319.315 30.7734 319.315 27.2186 319.315 20.109V15.0818C319.315 7.97221 319.315 4.41742 317.106 2.20876C314.898 9.53674e-05 311.343 9.53674e-05 304.233 9.53674e-05H244.583C242.788 9.53674e-05 241.89 9.53674e-05 241.132 0.0459518C228.445 0.813393 218.327 10.9312 217.559 23.6186C217.514 24.3767 217.514 25.2744 217.514 27.0698Z" fill="url(#paint1_linear_2125_8)"/>
<path d="M218.77 17.5953H319.315V20.1089C319.315 27.2185 319.315 30.7733 317.106 32.982C314.898 35.1906 311.343 35.1906 304.233 35.1906H267.157H232.995C225.008 35.1906 221.015 35.1906 218.774 32.7511C218.56 32.5173 218.36 32.2701 218.176 32.011C216.26 29.3087 217.097 25.4043 218.77 17.5953Z" fill="#395A82"/>
<path d="M215.227 58.3996C215.227 51.29 215.227 47.7352 217.436 45.5265C219.645 43.3179 223.199 43.3179 230.309 43.3179H288.122C295.232 43.3179 298.787 43.3179 300.995 45.5265C303.204 47.7352 303.204 51.29 303.204 58.3996V63.4268C303.204 70.5364 303.204 74.0912 300.995 76.2998C298.787 78.5085 295.232 78.5085 288.122 78.5085H230.309C223.199 78.5085 219.645 78.5085 217.436 76.2998C215.227 74.0912 215.227 70.5364 215.227 63.4268V58.3996Z" fill="url(#paint2_linear_2125_8)"/>
<path d="M215 61.6473H302.977V63.5656C302.977 70.6752 302.977 74.23 300.768 76.4387C298.559 78.6473 295.004 78.6473 287.895 78.6473H230.082C222.972 78.6473 219.417 78.6473 217.209 76.4387C215 74.23 215 70.6752 215 63.5656V61.6473Z" fill="#C92A2A" fill-opacity="0.48"/>
<path d="M182.369 98.4084C182.682 98.4084 182.956 98.4182 183.191 98.4377C183.426 98.4377 183.641 98.4475 183.837 98.4671C184.052 98.4867 184.258 98.5161 184.454 98.5552C184.649 98.5944 184.865 98.6433 185.1 98.702C184.415 98.4084 183.866 98.105 183.455 97.7918C183.064 97.459 182.76 97.1066 182.545 96.7347C182.33 96.3628 182.183 95.9615 182.105 95.5308C182.046 95.0806 182.017 94.5912 182.017 94.0626C182.017 93.5341 182.114 92.986 182.31 92.4183C182.526 91.8506 182.839 91.3417 183.25 90.8914C183.661 90.4412 184.17 90.0693 184.777 89.7756C185.403 89.482 186.118 89.3352 186.92 89.3352C187.684 89.3352 188.369 89.4331 188.976 89.6288C189.602 89.8246 190.14 90.1476 190.591 90.5978C191.041 91.048 191.383 91.6451 191.618 92.389C191.873 93.1132 192 94.0137 192 95.0904V96.5879C192 98.1735 191.54 99.4165 190.62 100.317C189.719 101.198 188.29 101.638 186.333 101.638H179.726C179.472 101.638 179.305 101.511 179.227 101.257C179.129 100.983 179.08 100.591 179.08 100.082C179.08 99.5144 179.129 99.0935 179.227 98.8195C179.305 98.5454 179.472 98.4084 179.726 98.4084H182.369ZM186.803 92.5651C186.118 92.5651 185.609 92.7902 185.276 93.2405C184.943 93.6711 184.777 94.1312 184.777 94.6205C184.777 94.8946 184.806 95.1589 184.865 95.4134C184.943 95.6483 185.109 95.893 185.364 96.1474C185.618 96.4019 186 96.676 186.509 96.9696C187.018 97.2632 187.723 97.596 188.623 97.9679C188.78 97.7722 188.897 97.5079 188.976 97.1751C189.073 96.8228 189.122 96.4802 189.122 96.1474V95.384C189.122 94.5618 188.956 93.8865 188.623 93.3579C188.29 92.8294 187.684 92.5651 186.803 92.5651ZM190.385 86.7806H187.331V83.903H190.385V86.7806ZM186.186 86.7806H183.132V83.903H186.186V86.7806Z" fill="#2A2D53"/>
<path d="M171.86 98.4084C173.172 98.4084 173.828 97.7722 173.828 96.4998V93.0349H176.852V96.4998C176.852 97.1849 177.058 97.6743 177.469 97.9679C177.899 98.2616 178.399 98.4084 178.966 98.4084H179.73C180.18 98.4084 180.405 98.9271 180.405 99.9646C180.405 101.08 180.18 101.638 179.73 101.638H178.878C178.134 101.638 177.459 101.521 176.852 101.286C176.245 101.031 175.717 100.532 175.267 99.7885C174.777 100.532 174.249 101.031 173.681 101.286C173.113 101.521 172.506 101.638 171.86 101.638H169.805C169.551 101.638 169.384 101.511 169.306 101.257C169.208 100.983 169.159 100.591 169.159 100.082C169.159 99.5144 169.208 99.0935 169.306 98.8195C169.384 98.5454 169.551 98.4084 169.805 98.4084H171.86ZM178.379 107.805H175.355V104.927H178.379V107.805ZM174.151 107.805H171.126V104.927H174.151V107.805Z" fill="#2A2D53"/>
<path d="M155.416 98.4084C156.082 98.4084 156.6 98.2812 156.972 98.0267C157.344 97.7527 157.53 97.3122 157.53 96.7054V96.0594C157.53 95.2764 157.638 94.5521 157.853 93.8865C158.088 93.221 158.421 92.6533 158.851 92.1835C159.282 91.7137 159.801 91.3515 160.408 91.097C161.034 90.823 161.729 90.6859 162.492 90.6859C163.295 90.6859 164 90.823 164.607 91.097C165.233 91.3515 165.752 91.7234 166.163 92.2128C166.574 92.6826 166.887 93.2405 167.103 93.8865C167.318 94.5325 167.425 95.2372 167.425 96.0007V96.5586C167.425 97.2633 167.631 97.7527 168.042 98.0267C168.473 98.2812 168.923 98.4084 169.393 98.4084H169.804C170.058 98.4084 170.225 98.5455 170.303 98.8195C170.401 99.074 170.45 99.4557 170.45 99.9647C170.45 100.532 170.401 100.953 170.303 101.227C170.225 101.501 170.058 101.638 169.804 101.638H169.393C168.825 101.638 168.248 101.521 167.66 101.286C167.073 101.032 166.564 100.503 166.134 99.7004C165.605 100.503 165.008 101.032 164.342 101.286C163.696 101.521 163.031 101.638 162.346 101.638C161.563 101.638 160.829 101.492 160.143 101.198C159.478 100.885 158.959 100.395 158.587 99.7298C158.215 100.493 157.736 101.002 157.148 101.257C156.561 101.511 155.984 101.638 155.416 101.638H155.152C154.897 101.638 154.731 101.511 154.653 101.257C154.555 100.983 154.506 100.591 154.506 100.082C154.506 99.5144 154.555 99.0936 154.653 98.8195C154.731 98.5455 154.897 98.4084 155.152 98.4084H155.416ZM164.548 96.2943C164.548 95.6287 164.391 95.0708 164.078 94.6206C163.784 94.1704 163.246 93.9452 162.463 93.9452C161.719 93.9452 161.181 94.1704 160.848 94.6206C160.535 95.0513 160.378 95.6189 160.378 96.3237C160.378 97.0088 160.564 97.5275 160.936 97.8799C161.308 98.2323 161.817 98.4084 162.463 98.4084C163.853 98.4084 164.548 97.7037 164.548 96.2943Z" fill="#2A2D53"/>
<path d="M147.439 98.4084C148.751 98.4084 149.407 97.7722 149.407 96.4998V93.0349H152.402V96.4998C152.402 97.1849 152.617 97.6743 153.048 97.9679C153.498 98.2615 154.007 98.4084 154.574 98.4084H155.162C155.416 98.4084 155.583 98.5454 155.661 98.8194C155.759 99.0739 155.808 99.4556 155.808 99.9646C155.808 100.532 155.759 100.953 155.661 101.227C155.583 101.501 155.416 101.638 155.162 101.638H154.457C153.733 101.638 153.057 101.521 152.431 101.286C151.824 101.031 151.296 100.532 150.845 99.7884C150.375 100.532 149.847 101.031 149.26 101.286C148.692 101.521 148.085 101.638 147.439 101.638H137.544C136.741 101.638 136.046 101.521 135.459 101.286C134.891 101.031 134.422 100.699 134.05 100.288C133.697 99.8765 133.433 99.3969 133.257 98.8488C133.1 98.3007 133.022 97.7232 133.022 97.1164V92.9468H136.017V96.3529C136.017 96.9989 136.154 97.5079 136.428 97.8798C136.722 98.2322 137.319 98.4084 138.219 98.4084H147.439ZM146.323 90.6565H143.27V87.7789H146.323V90.6565ZM142.124 90.6565H139.071V87.7789H142.124V90.6565Z" fill="#2A2D53"/>
<path d="M120.557 98.4083C121.888 98.4083 122.554 97.7721 122.554 96.4997V83.4332H125.549V96.7053C125.549 98.33 125.128 99.5633 124.286 100.405C123.464 101.227 122.309 101.638 120.821 101.638H119.882C119.627 101.638 119.461 101.511 119.383 101.257C119.285 100.983 119.236 100.591 119.236 100.082C119.236 99.5144 119.285 99.0935 119.383 98.8194C119.461 98.5454 119.627 98.4083 119.882 98.4083H120.557Z" fill="#FF5F55"/>
<path d="M115.997 97.3806C116.271 97.7917 116.585 98.0658 116.937 98.2028C117.289 98.3398 117.72 98.4083 118.229 98.4083H119.873C120.128 98.4083 120.294 98.5454 120.372 98.8194C120.47 99.0739 120.519 99.4556 120.519 99.9646C120.519 100.532 120.47 100.953 120.372 101.227C120.294 101.501 120.128 101.638 119.873 101.638H118.082C117.436 101.638 116.878 101.56 116.408 101.403C115.958 101.247 115.567 101.041 115.234 100.787C114.921 100.513 114.656 100.19 114.441 99.8178C114.245 99.4458 114.069 99.0348 113.913 98.5845L111.534 99.9939C111.006 100.307 110.487 100.571 109.978 100.787C109.469 100.983 108.931 101.149 108.363 101.286C107.795 101.403 107.169 101.491 106.484 101.55C105.818 101.609 105.045 101.638 104.164 101.638H103.107C102.853 101.638 102.686 101.511 102.608 101.257C102.51 100.983 102.461 100.591 102.461 100.082C102.461 99.5144 102.51 99.0935 102.608 98.8194C102.686 98.5454 102.853 98.4083 103.107 98.4083H104.282C105.006 98.4083 105.662 98.3986 106.249 98.379C106.836 98.3398 107.365 98.2811 107.834 98.2028C108.324 98.1245 108.784 98.0168 109.215 97.8798C109.645 97.7232 110.076 97.5177 110.506 97.2632L114.236 95.1197C114.099 94.8652 113.962 94.6401 113.825 94.4443C113.707 94.2486 113.55 94.092 113.355 93.9745C113.179 93.8375 112.953 93.7396 112.679 93.6809C112.405 93.6026 112.053 93.5634 111.622 93.5634H105.397L105.573 90.3335H112.092C112.64 90.3335 113.179 90.4118 113.707 90.5684C114.255 90.725 114.764 91.0284 115.234 91.4787C115.723 91.9093 116.164 92.5259 116.555 93.3285C116.966 94.1115 117.309 95.149 117.583 96.441L115.997 97.3806Z" fill="#FF5F55"/>
<path d="M87.1936 83.4332H90.1886V91.5374C90.1886 92.1051 90.1789 92.6336 90.1593 93.123C90.1593 93.6124 90.1299 94.1115 90.0712 94.6205C91.0108 93.2894 91.9015 92.3008 92.7432 91.6548C93.6045 91.0088 94.4854 90.6467 95.3859 90.5684C95.66 90.5488 95.9144 90.5586 96.1493 90.5978C96.3843 90.6173 96.6094 90.6467 96.8247 90.6858C97.4315 90.8033 97.9797 91.0284 98.469 91.3612C98.978 91.694 99.3989 92.1051 99.7316 92.5944C100.064 93.0643 100.319 93.6124 100.495 94.2388C100.691 94.8456 100.789 95.4916 100.789 96.1767C100.789 96.4704 100.759 96.764 100.701 97.0576C100.661 97.3513 100.583 97.6351 100.466 97.9092C100.818 98.1441 101.18 98.2909 101.552 98.3496C101.944 98.3888 102.335 98.4083 102.727 98.4083H103.108C103.539 98.4083 103.754 98.9271 103.754 99.9646C103.754 101.08 103.539 101.638 103.108 101.638H102.727C102.472 101.638 102.198 101.638 101.905 101.638C101.63 101.619 101.337 101.57 101.024 101.491C100.73 101.394 100.417 101.266 100.084 101.11C99.7708 100.934 99.4576 100.679 99.1444 100.346C98.6942 100.738 98.1656 101.051 97.5588 101.286C96.9715 101.521 96.2864 101.638 95.5034 101.638H84.6977C84.4433 101.638 84.2769 101.511 84.1986 101.257C84.1007 100.983 84.0518 100.591 84.0518 100.082C84.0518 99.5144 84.1007 99.0935 84.1986 98.8194C84.2769 98.5454 84.4433 98.4083 84.6977 98.4083H87.1936V83.4332ZM97.823 96.1767C97.823 95.5699 97.6175 95.0218 97.2064 94.5324C96.7953 94.0235 96.2081 93.769 95.4446 93.769C95.0923 93.769 94.7301 93.8473 94.3582 94.0039C94.0058 94.1605 93.6241 94.4247 93.213 94.7967C92.802 95.1686 92.3517 95.6482 91.8623 96.2355C91.373 96.8227 90.8151 97.547 90.1886 98.4083H95.6502C96.2766 98.4083 96.7953 98.2224 97.2064 97.8504C97.6175 97.4589 97.823 96.901 97.823 96.1767ZM97.6175 87.2797H94.2995V84.2847H97.6175V87.2797Z" fill="#FF5F55"/>
<path d="M77.1343 97.41C77.8977 97.41 78.4752 97.2534 78.8667 96.9402C79.2582 96.6074 79.454 96.1768 79.454 95.6482V92.9175H77.3986C76.5764 92.9175 75.9891 93.1524 75.6368 93.6222C75.2844 94.0724 75.1082 94.6695 75.1082 95.4133C75.1082 96.0985 75.2648 96.6074 75.578 96.9402C75.8912 97.2534 76.41 97.41 77.1343 97.41ZM82.3316 96.3823C82.3316 97.0087 82.4686 97.5079 82.7426 97.8798C83.0167 98.2322 83.4474 98.4084 84.0346 98.4084H84.71C84.9644 98.4084 85.1308 98.5454 85.2091 98.8195C85.307 99.0739 85.356 99.4557 85.356 99.9646C85.356 100.532 85.307 100.953 85.2091 101.227C85.1308 101.501 84.9644 101.638 84.71 101.638H84.0346C83.0363 101.638 82.2141 101.462 81.5681 101.11C80.9417 100.757 80.4915 100.141 80.2174 99.2599C79.728 99.7884 79.1408 100.131 78.4556 100.288C77.7705 100.444 77.1245 100.523 76.5177 100.523C75.1082 100.523 74.0414 100.111 73.3171 99.2893C72.5928 98.4475 72.2307 97.2339 72.2307 95.6482C72.2307 94.9435 72.3285 94.2486 72.5243 93.5635C72.7396 92.8783 73.043 92.2715 73.4345 91.743C73.8456 91.1948 74.3546 90.7544 74.9614 90.4216C75.5878 90.0888 76.3121 89.9224 77.1343 89.9224H79.454V87.9551H82.3316V96.3823Z" fill="#FF5F55"/>
<path d="M66.8245 83.4332H69.8196V101.638H66.8245V83.4332Z" fill="#FF5F55"/>
<path d="M55.5554 105.544C57.141 105.544 58.3743 105.27 59.2552 104.721C60.1556 104.173 60.6059 103.459 60.6059 102.578C60.6059 102.167 60.4982 101.844 60.2829 101.609C60.0676 101.355 59.6858 101.227 59.1377 101.227H54.0873V95.6189C54.0873 94.8555 54.2047 94.1606 54.4396 93.5342C54.6745 92.8882 55.0073 92.3401 55.438 91.8898C55.8882 91.42 56.4265 91.0579 57.0529 90.8034C57.6794 90.5489 58.3841 90.4217 59.1671 90.4217H62.5438L62.6907 93.6516H59.1084C58.5407 93.6516 58.0611 93.8278 57.6696 94.1801C57.2781 94.5129 57.0823 95.0219 57.0823 95.707V98.0267H59.6663C60.4297 98.0267 61.0561 98.1246 61.5455 98.3203C62.0545 98.5161 62.4558 98.7902 62.7494 99.1425C63.043 99.4949 63.2486 99.9157 63.366 100.405C63.503 100.895 63.5716 101.443 63.5716 102.049C63.5716 102.989 63.3758 103.87 62.9843 104.692C62.6124 105.514 62.0838 106.219 61.3987 106.806C60.7135 107.413 59.9012 107.883 58.9616 108.216C58.0415 108.568 57.0432 108.744 55.9665 108.744H53.4119C51.2195 108.744 49.5164 108.069 48.3027 106.718C47.0891 105.367 46.4822 103.518 46.4822 101.169V95.9126H49.4479V101.051C49.4479 101.736 49.5262 102.353 49.6828 102.901C49.8394 103.449 50.0841 103.919 50.4169 104.31C50.7692 104.702 51.2195 105.005 51.7676 105.221C52.3353 105.436 53.0204 105.544 53.823 105.544H55.5554Z" fill="#FF5F55"/>
<path d="M34.4698 98.4084C35.7813 98.4084 36.4371 97.7722 36.4371 96.4998V93.0349H39.4321V96.7053C39.4321 98.3301 39.021 99.5633 38.1989 100.405C37.3767 101.227 36.2218 101.638 34.734 101.638H31.7684C31.5139 101.638 31.3475 101.511 31.2692 101.257C31.1713 100.983 31.1224 100.591 31.1224 100.082C31.1224 99.5144 31.1713 99.0935 31.2692 98.8195C31.3475 98.5454 31.5139 98.4084 31.7684 98.4084H34.4698ZM35.9966 107.922H32.6786V104.927H35.9966V107.922Z" fill="#2A2D53"/>
<path d="M30.4744 101.638C29.9263 101.638 29.3978 101.57 28.8888 101.433C28.3994 101.276 27.9688 101.022 27.5968 100.669C27.2249 100.317 26.9313 99.8569 26.7159 99.2892C26.5006 98.702 26.3929 97.9777 26.3929 97.1164V83.4332H29.388V96.3823C29.388 97.0087 29.525 97.5079 29.7991 97.8798C30.0927 98.2322 30.5233 98.4083 31.091 98.4083H31.7664C32.197 98.4083 32.4124 98.9271 32.4124 99.9646C32.4124 101.08 32.197 101.638 31.7664 101.638H30.4744Z" fill="#2A2D53"/>
<path d="M22.9812 101.169C22.9812 102.226 22.7953 103.214 22.4233 104.134C22.071 105.054 21.5718 105.857 20.9258 106.542C20.2994 107.227 19.5457 107.765 18.6648 108.157C17.8035 108.548 16.8737 108.744 15.8754 108.744H14.0255L13.8787 105.544H15.1119C15.9928 105.544 16.7465 105.416 17.3729 105.162C17.9797 104.927 18.4789 104.604 18.8704 104.193C19.2619 103.782 19.5457 103.312 19.7219 102.784C19.8981 102.255 19.9862 101.717 19.9862 101.169V93.035H22.9812V101.169ZM23.0106 89.5995H19.6926V86.6045H23.0106V89.5995Z" fill="#2A2D53"/>
<path d="M12.514 83.4332H15.5091V101.638H12.514V83.4332Z" fill="#2A2D53"/>
<path d="M9.10256 101.169C9.10256 102.226 8.91659 103.214 8.54466 104.134C8.1923 105.054 7.69313 105.857 7.04714 106.542C6.42073 107.227 5.66708 107.765 4.78618 108.157C3.92487 108.548 2.99504 108.744 1.99669 108.744H0.146816L0 105.544H1.23325C2.11414 105.544 2.8678 105.416 3.49421 105.162C4.10105 104.927 4.60022 104.604 4.99173 104.193C5.38323 103.782 5.66708 103.312 5.84326 102.783C6.01943 102.255 6.10752 101.717 6.10752 101.169V93.0349H9.10256V101.169Z" fill="#2A2D53"/>
<path d="M185.664 12H192.136V51.342H185.664V12Z" fill="#2A2D53"/>
<path d="M167.487 44.362C170.321 44.362 171.738 42.9872 171.738 40.2374V32.7498H178.211V40.6816C178.211 44.1928 177.322 46.8579 175.546 48.6769C173.769 50.4537 171.273 51.342 168.058 51.342H161.649C161.099 51.342 160.74 51.0671 160.57 50.5171C160.359 49.9249 160.253 49.0788 160.253 47.9789C160.253 46.7521 160.359 45.8426 160.57 45.2504C160.74 44.6581 161.099 44.362 161.649 44.362H167.487ZM177.322 64.6676H170.787V58.449H177.322V64.6676ZM168.185 64.6676H161.649V58.449H168.185V64.6676Z" fill="#2A2D53"/>
<path d="M161.647 44.362C162.197 44.362 162.556 44.6581 162.726 45.2503C162.937 45.8003 163.043 46.6252 163.043 47.7251C163.043 48.9519 162.937 49.8614 162.726 50.4536C162.556 51.0459 162.197 51.342 161.647 51.342H151.177C150.627 51.342 150.267 51.067 150.098 50.5171C149.887 49.9248 149.781 49.0788 149.781 47.9789C149.781 46.7521 149.887 45.8426 150.098 45.2503C150.267 44.6581 150.627 44.362 151.177 44.362H161.647Z" fill="#2A2D53"/>
<path d="M151.174 44.362C151.724 44.362 152.084 44.6581 152.253 45.2503C152.465 45.8003 152.57 46.6252 152.57 47.7251C152.57 48.9519 152.465 49.8614 152.253 50.4536C152.084 51.0459 151.724 51.342 151.174 51.342H140.704C140.154 51.342 139.795 51.067 139.626 50.5171C139.414 49.9248 139.308 49.0788 139.308 47.9789C139.308 46.7521 139.414 45.8426 139.626 45.2503C139.795 44.6581 140.154 44.362 140.704 44.362H151.174Z" fill="#2A2D53"/>
<path d="M140.702 44.362C141.251 44.362 141.611 44.6581 141.78 45.2503C141.992 45.8003 142.098 46.6252 142.098 47.7251C142.098 48.9519 141.992 49.8614 141.78 50.4536C141.611 51.0459 141.251 51.342 140.702 51.342H130.231C129.682 51.342 129.322 51.067 129.153 50.5171C128.941 49.9248 128.835 49.0788 128.835 47.9789C128.835 46.7521 128.941 45.8426 129.153 45.2503C129.322 44.6581 129.682 44.362 130.231 44.362H140.702Z" fill="#2A2D53"/>
<path d="M130.229 44.362C130.779 44.362 131.139 44.6581 131.308 45.2503C131.519 45.8003 131.625 46.6252 131.625 47.7251C131.625 48.9519 131.519 49.8614 131.308 50.4536C131.139 51.0459 130.779 51.342 130.229 51.342H119.759C119.209 51.342 118.85 51.067 118.68 50.5171C118.469 49.9248 118.363 49.0788 118.363 47.9789C118.363 46.7521 118.469 45.8426 118.68 45.2503C118.85 44.6581 119.209 44.362 119.759 44.362H130.229Z" fill="#2A2D53"/>
<path d="M119.756 44.362C120.306 44.362 120.666 44.6581 120.835 45.2503C121.047 45.8003 121.153 46.6252 121.153 47.7251C121.153 48.9519 121.047 49.8614 120.835 50.4536C120.666 51.0459 120.306 51.342 119.756 51.342H109.286C108.737 51.342 108.377 51.067 108.208 50.5171C107.996 49.9248 107.89 49.0788 107.89 47.9789C107.89 46.7521 107.996 45.8426 108.208 45.2503C108.377 44.6581 108.737 44.362 109.286 44.362H119.756Z" fill="#2A2D53"/>
<path d="M109.284 44.362C109.834 44.362 110.194 44.6581 110.363 45.2503C110.574 45.8003 110.68 46.6252 110.68 47.7251C110.68 48.9519 110.574 49.8614 110.363 50.4536C110.194 51.0459 109.834 51.342 109.284 51.342H98.814C98.2641 51.342 97.9045 51.067 97.7353 50.5171C97.5238 49.9248 97.418 49.0788 97.418 47.9789C97.418 46.7521 97.5238 45.8426 97.7353 45.2503C97.9045 44.6581 98.2641 44.362 98.814 44.362H109.284Z" fill="#2A2D53"/>
<path d="M98.8116 44.362C99.3616 44.362 99.7211 44.6581 99.8903 45.2503C100.102 45.8003 100.208 46.6252 100.208 47.7251C100.208 48.9519 100.102 49.8614 99.8903 50.4536C99.7211 51.0459 99.3616 51.342 98.8116 51.342H88.3416C87.7916 51.342 87.432 51.067 87.2628 50.5171C87.0513 49.9248 86.9456 49.0788 86.9456 47.9789C86.9456 46.7521 87.0513 45.8426 87.2628 45.2503C87.432 44.6581 87.7916 44.362 88.3416 44.362H98.8116Z" fill="#2A2D53"/>
<path d="M57.2469 44.362C58.6853 44.362 59.8063 44.087 60.6101 43.5371C61.4138 42.9448 61.8157 41.993 61.8157 40.6816V39.2856C61.8157 37.5934 62.0484 36.0282 62.5137 34.5899C63.0213 33.1516 63.7405 31.9248 64.6712 30.9095C65.6018 29.8943 66.7229 29.1117 68.0343 28.5617C69.388 27.9695 70.8897 27.6733 72.5396 27.6733C74.274 27.6733 75.7969 27.9695 77.1083 28.5617C78.462 29.1117 79.583 29.9154 80.4714 30.973C81.3598 31.9883 82.0366 33.1939 82.502 34.5899C82.9673 35.9859 83.2 37.5088 83.2 39.1587V40.3643C83.2 41.8872 83.6442 42.9448 84.5325 43.5371C85.4632 44.087 86.4362 44.362 87.4514 44.362H88.3398C88.8898 44.362 89.2493 44.6581 89.4186 45.2503C89.6301 45.8003 89.7358 46.6252 89.7358 47.7251C89.7358 48.9519 89.6301 49.8614 89.4186 50.4536C89.2493 51.0459 88.8898 51.342 88.3398 51.342H87.4514C86.2247 51.342 84.9767 51.0882 83.7076 50.5805C82.4385 50.0306 81.3386 48.8884 80.408 47.154C79.2658 48.8884 77.9755 50.0306 76.5372 50.5805C75.1412 51.0882 73.7029 51.342 72.2223 51.342C70.5302 51.342 68.9438 51.0247 67.4632 50.3902C66.0249 49.7133 64.9038 48.6557 64.1001 47.2174C63.2963 48.8673 62.2599 49.9671 60.9908 50.5171C59.7217 51.067 58.4737 51.342 57.2469 51.342H56.6759C56.1259 51.342 55.7663 51.067 55.5971 50.5171C55.3856 49.9248 55.2798 49.0788 55.2798 47.9789C55.2798 46.7521 55.3856 45.8426 55.5971 45.2503C55.7663 44.6581 56.1259 44.362 56.6759 44.362H57.2469ZM76.9814 39.7932C76.9814 38.3549 76.643 37.1493 75.9661 36.1763C75.3316 35.2033 74.1682 34.7168 72.4761 34.7168C70.8686 34.7168 69.7052 35.2033 68.9861 36.1763C68.3092 37.107 67.9708 38.3338 67.9708 39.8567C67.9708 41.3373 68.3727 42.4583 69.1765 43.2198C69.9802 43.9812 71.0801 44.362 72.4761 44.362C75.4796 44.362 76.9814 42.839 76.9814 39.7932Z" fill="#2A2D53"/>
<path d="M53.8797 51.342C52.6952 51.342 51.553 51.1939 50.4531 50.8978C49.3955 50.5594 48.4649 50.0094 47.6611 49.248C46.8573 48.4865 46.2228 47.4924 45.7575 46.2656C45.2921 44.9965 45.0594 43.4313 45.0594 41.57V12H51.5318V39.9836C51.5318 41.3373 51.828 42.416 52.4202 43.2198C53.0548 43.9812 53.9854 44.362 55.2122 44.362H56.6717C57.6024 44.362 58.0677 45.483 58.0677 47.7251C58.0677 50.1364 57.6024 51.342 56.6717 51.342H53.8797Z" fill="#2A2D53"/>
<path d="M26.2222 44.362C29.0988 44.362 30.5371 42.9871 30.5371 40.2374V12H37.0095V40.6816C37.0095 44.1928 36.1 46.8579 34.2809 48.6769C32.5042 50.4536 30.0083 51.342 26.7933 51.342H24.7627C24.2128 51.342 23.8532 51.067 23.684 50.5171C23.4725 49.9248 23.3667 49.0788 23.3667 47.9789C23.3667 46.7521 23.4725 45.8426 23.684 45.2503C23.8532 44.6581 24.2128 44.362 24.7627 44.362H26.2222Z" fill="#2A2D53"/>
<path d="M19.3988 50.3268C19.3988 52.6112 19.0181 54.7475 18.2566 56.7357C17.4952 58.724 16.4376 60.4584 15.0839 61.939C13.7725 63.4196 12.1861 64.583 10.3248 65.429C8.50575 66.2751 6.5175 66.6981 4.36003 66.6981H0.36238L0.045105 59.7816H2.71021C4.61385 59.7816 6.24253 59.5066 7.59623 58.9566C8.90763 58.449 9.98636 57.751 10.8324 56.8626C11.6785 55.9743 12.2919 54.959 12.6726 53.8168C13.0533 52.6746 13.2437 51.5113 13.2437 50.3268V32.7498H19.7161V40.3009C19.7161 41.6546 20.118 42.6699 20.9217 43.3468C21.7678 44.0236 22.8254 44.362 24.0945 44.362H24.7925C25.7232 44.362 26.1885 45.4831 26.1885 47.7251C26.1885 50.1364 25.7232 51.3421 24.7925 51.3421H24.0945C23.2484 51.3421 22.4024 51.2152 21.5563 50.9613C20.7102 50.6652 19.9911 50.0941 19.3988 49.2481V50.3268ZM19.7796 25.3256H12.6092V18.8532H19.7796V25.3256Z" fill="#2A2D53"/>
<path d="M156.744 65.6474C156.744 60.9747 160.532 57.1867 165.205 57.1867H182.126C182.126 61.8594 178.338 65.6474 173.665 65.6474H156.744Z" fill="#FF5F55"/>
<path d="M10.093 17.7037C10.093 16.1462 11.3557 14.8835 12.9132 14.8835H21.3739V23.3441C21.3739 24.9017 20.1112 26.1644 18.5537 26.1644H10.093V17.7037Z" fill="#FF5F55"/>
<defs>
<linearGradient id="paint0_linear_2125_8" x1="318.058" y1="103.913" x2="215" y2="100.143" gradientUnits="userSpaceOnUse">
<stop stop-color="#F79428"/>
<stop offset="1" stop-color="#F47625"/>
</linearGradient>
<linearGradient id="paint1_linear_2125_8" x1="285.381" y1="17.5954" x2="218.77" y2="17.5954" gradientUnits="userSpaceOnUse">
<stop stop-color="#4270A3"/>
<stop offset="1" stop-color="#395A82"/>
</linearGradient>
<linearGradient id="paint2_linear_2125_8" x1="279.953" y1="60.9132" x2="230.937" y2="57.7711" gradientUnits="userSpaceOnUse">
<stop stop-color="#FF3531"/>
<stop offset="1" stop-color="#DD2927"/>
</linearGradient>
</defs>
</svg>
