<svg xmlns:xlink="http://www.w3.org/1999/xlink" width="25" alt="دریافت ایمالز از پلی استور" height="25" viewBox="0 0 25 25" fill="none" xmlns="http://www.w3.org/2000/svg">
                                            <g clip-path="url(#clip0_1838_2614)" fill="none">
                                                <path d="M12.0663 11.76L2.63379 21.6213C2.94004 22.6625 3.92004 23.4588 5.08379 23.4588C5.57379 23.4588 6.00254 23.3363 6.37004 23.0913L17.0275 17.0275L12.0663 11.76Z" fill="#EA4335"></path>
                                                <path d="M21.6225 10.0449L17.0288 7.41113L11.8838 11.9436L17.09 17.0274L21.6838 14.4549C22.48 14.0261 23.0313 13.1686 23.0313 12.2499C22.97 11.3311 22.4188 10.4736 21.6225 10.0449Z" fill="#FBBC04"></path>
                                                <path d="M2.63449 2.87866C2.57324 3.06241 2.57324 3.30741 2.57324 3.55241V21.0087C2.57324 21.2537 2.57324 21.4374 2.63449 21.6824L12.4345 12.0662L2.63449 2.87866Z" fill="#4285F4"></path>
                                                <path d="M12.1275 12.25L17.0275 7.41126L6.43129 1.40876C6.06379 1.16376 5.57379 1.04126 5.08379 1.04126C3.92004 1.04126 2.87879 1.83751 2.63379 2.87876L12.1275 12.25Z" fill="#34A853"></path>
                                            </g>
                                            <defs>
                                                <clipPath id="clip0_1838_2614">
                                                    <rect width="24.5" height="24.5" fill="white"></rect>
                                                </clipPath>
                                            </defs>
                                        </svg>