<svg xmlns:xlink="http://www.w3.org/1999/xlink" width="19" height="18" viewBox="0 0 19 18" fill="none" xmlns="http://www.w3.org/2000/svg" class="">
<path d="M9.5 12.75C8.2475 12.75 7.625 13.3725 7.625 14.625V16.5H11.375V14.625C11.375 13.3725 10.7525 12.75 9.5 12.75Z" stroke="#FF5F55" stroke-width="1.5px" stroke-linecap="round" stroke-linejoin="round" fill="none" class=""></path>
<path d="M2.75751 8.41504V11.7825C2.75751 15.15 4.10751 16.5 7.47501 16.5H11.5175C14.885 16.5 16.235 15.15 16.235 11.7825V8.41504" stroke="#2A2D53" stroke-width="1.5px" stroke-linecap="round" stroke-linejoin="round" fill="none" class=""></path>
<path d="M9.49999 9C10.8725 9 11.885 7.8825 11.75 6.51L11.255 1.5H7.75249L7.24999 6.51C7.11499 7.8825 8.12749 9 9.49999 9Z" stroke="#2A2D53" stroke-width="1.5px" stroke-linecap="round" stroke-linejoin="round" fill="none" class=""></path>
<path d="M14.2325 9C15.7475 9 16.8575 7.77 16.7075 6.2625L16.4975 4.2C16.2275 2.25 15.4775 1.5 13.5125 1.5H11.225L11.75 6.7575C11.8775 7.995 12.995 9 14.2325 9Z" stroke="#2A2D53" stroke-width="1.5px" stroke-linecap="round" stroke-linejoin="round" fill="none" class=""></path>
<path d="M4.73 9C5.9675 9 7.085 7.995 7.205 6.7575L7.37 5.1L7.73 1.5H5.4425C3.4775 1.5 2.7275 2.25 2.4575 4.2L2.255 6.2625C2.105 7.77 3.215 9 4.73 9Z" stroke="#2A2D53" stroke-width="1.5px" stroke-linecap="round" stroke-linejoin="round" fill="none" class=""></path>
</svg>