<svg xmlns:xlink="http://www.w3.org/1999/xlink" width="19" height="18" viewBox="0 0 19 18" fill="none" xmlns="http://www.w3.org/2000/svg" class="">
<path d="M14 5.37C13.955 5.3625 13.9025 5.3625 13.8575 5.37C12.8225 5.3325 11.9975 4.485 11.9975 3.435C11.9975 2.3625 12.86 1.5 13.9325 1.5C15.005 1.5 15.8675 2.37 15.8675 3.435C15.86 4.485 15.035 5.3325 14 5.37Z" stroke="#FF5F55" stroke-width="1.34375px" stroke-linecap="round" stroke-linejoin="round" fill="none" class=""></path>
<path d="M13.2275 10.83C14.255 11.0025 15.3875 10.8225 16.1825 10.29C17.24 9.585 17.24 8.43 16.1825 7.725C15.38 7.1925 14.2325 7.01249 13.205 7.19249" stroke="#FF5F55" stroke-width="1.34375px" stroke-linecap="round" stroke-linejoin="round" fill="none" class=""></path>
<path d="M4.9775 5.37C5.0225 5.3625 5.075 5.3625 5.12 5.37C6.155 5.3325 6.98 4.485 6.98 3.435C6.98 2.3625 6.1175 1.5 5.045 1.5C3.9725 1.5 3.11 2.37 3.11 3.435C3.1175 4.485 3.9425 5.3325 4.9775 5.37Z" stroke="#2A2D53" stroke-width="1.34375px" stroke-linecap="round" stroke-linejoin="round" fill="none" class=""></path>
<path d="M5.75 10.83C4.7225 11.0025 3.59 10.8225 2.795 10.29C1.7375 9.585 1.7375 8.43 2.795 7.725C3.5975 7.1925 4.745 7.01249 5.7725 7.19249" stroke="#2A2D53" stroke-width="1.34375px" stroke-linecap="round" stroke-linejoin="round" fill="none" class=""></path>
<path d="M9.5 10.9724C9.455 10.9649 9.4025 10.9649 9.3575 10.9724C8.3225 10.9349 7.4975 10.0874 7.4975 9.03742C7.4975 7.96492 8.36 7.10242 9.4325 7.10242C10.505 7.10242 11.3675 7.97242 11.3675 9.03742C11.36 10.0874 10.535 10.9424 9.5 10.9724Z" stroke="#2A2D53" stroke-width="1.34375px" stroke-linecap="round" stroke-linejoin="round" fill="none" class=""></path>
<path d="M7.31749 13.335C6.25999 14.04 6.25999 15.195 7.31749 15.9C8.51749 16.7025 10.4825 16.7025 11.6825 15.9C12.74 15.195 12.74 14.04 11.6825 13.335C10.49 12.54 8.51749 12.54 7.31749 13.335Z" stroke="#2A2D53" stroke-width="1.34375px" stroke-linecap="round" stroke-linejoin="round" fill="none" class=""></path>
</svg>