<svg xmlns:xlink="http://www.w3.org/1999/xlink" id="svg1" width="18" height="18" viewBox="0 0 46 46" fill="none" xmlns="http://www.w3.org/2000/svg" class="">
                                    <g clip-path="url(#clip0_2827_4288)" fill="none" class="">
                                        <path d="M23.0001 23.69C25.5685 23.69 27.6576 21.6008 27.6576 19.0325C27.6576 16.4642 25.5685 14.375 23.0001 14.375C20.4318 14.375 18.3427 16.4642 18.3427 19.0325C18.3427 21.6008 20.4318 23.69 23.0001 23.69Z" stroke="#2A2D53" stroke-width="2.875px" stroke-linecap="round" stroke-linejoin="round" fill="none" class=""></path>
                                        <path d="M17.9591 31.625C20.2208 27.8108 25.7216 27.7916 28.0216 31.5866V31.625" stroke="#2A2D53" stroke-width="2.875px" stroke-linecap="round" stroke-linejoin="round" fill="none" class=""></path>
                                        <path d="M40.25 23C40.25 13.4731 32.5269 5.75 23 5.75C13.4731 5.75 5.75 13.4731 5.75 23C5.75 32.5269 13.4731 40.25 23 40.25C32.5269 40.25 40.25 32.5269 40.25 23Z" stroke="#2A2D53" stroke-width="2.875px" stroke-linecap="round" stroke-linejoin="round" fill="none" class=""></path>
                                    </g><defs class=""><clipPath id="clip0_2827_4288" class=""><rect width="46" height="46" fill="white" class=""></rect></clipPath>
                                    </defs></svg>