<svg xmlns:xlink="http://www.w3.org/1999/xlink" width="21" height="20" viewBox="0 0 21 20" fill="none" xmlns="http://www.w3.org/2000/svg" class="">
<path d="M18.55 8.70005L17.7333 12.1834C17.0333 15.1917 15.65 16.4084 13.05 16.1584C12.6333 16.125 12.1833 16.05 11.7 15.9334L10.3 15.6C6.82499 14.775 5.74999 13.0584 6.56665 9.57505L7.38332 6.08338C7.54999 5.37505 7.74999 4.75838 7.99999 4.25005C8.97499 2.23338 10.6333 1.69171 13.4167 2.35005L14.8083 2.67505C18.3 3.49171 19.3667 5.21671 18.55 8.70005Z" stroke="#2A2D53" stroke-width="1.5px" stroke-linecap="round" stroke-linejoin="round" fill="none" class=""></path>
<path d="M13.05 16.1583C12.5333 16.5083 11.8833 16.8 11.0917 17.0583L9.77501 17.4917C6.46668 18.5583 4.72501 17.6667 3.65001 14.3583L2.58334 11.0667C1.51668 7.75833 2.40001 6.00833 5.70834 4.94167L7.02501 4.50833C7.36668 4.4 7.69168 4.30833 8.00001 4.25C7.75001 4.75833 7.55001 5.375 7.38334 6.08333L6.56668 9.575C5.75001 13.0583 6.82501 14.775 10.3 15.6L11.7 15.9333C12.1833 16.05 12.6333 16.125 13.05 16.1583Z" stroke="#2A2D53" stroke-width="1.5px" stroke-linecap="round" stroke-linejoin="round" fill="none" class=""></path>
<path d="M11.0333 7.10828L15.075 8.13328" stroke="#FF5F55" stroke-width="1.5px" stroke-linecap="round" stroke-linejoin="round" fill="none" class=""></path>
<path d="M10.2167 10.3334L12.6333 10.95" stroke="#FF5F55" stroke-width="1.5px" stroke-linecap="round" stroke-linejoin="round" fill="none" class=""></path>
</svg>